<?xml version="1.0" standalone="no"?>
<!DOCTYPE svg PUBLIC "-//W3C//DTD SVG 20010904//EN"
 "http://www.w3.org/TR/2001/REC-SVG-20010904/DTD/svg10.dtd">
<svg version="1.0" xmlns="http://www.w3.org/2000/svg"
 width="512.000000pt" height="512.000000pt" viewBox="0 0 512.000000 512.000000"
 preserveAspectRatio="xMidYMid meet">
<metadata>
Created by potrace 1.14, written by Peter Selinger 2001-2017
</metadata>
<g transform="translate(0.000000,512.000000) scale(0.100000,-0.100000)"
fill="#000000" stroke="none">
<path d="M1453 4899 c-204 -34 -353 -170 -427 -389 -41 -123 -56 -238 -56
-427 0 -185 15 -328 56 -529 14 -69 24 -127 22 -129 -2 -1 -41 -15 -88 -30
-336 -110 -588 -250 -761 -424 -78 -79 -103 -112 -137 -181 -80 -163 -80 -297
0 -460 34 -69 59 -102 137 -181 172 -173 426 -315 761 -424 47 -15 86 -29 88
-30 2 -2 -8 -59 -22 -127 -46 -225 -51 -283 -50 -538 0 -231 2 -250 26 -341
91 -335 311 -506 608 -469 110 13 178 35 330 107 197 93 370 211 533 363 l88
83 72 -70 c141 -135 310 -257 476 -342 321 -164 509 -188 708 -91 147 72 245
208 300 419 22 84 26 122 30 301 5 223 -6 348 -53 579 -13 68 -23 125 -22 126
2 1 41 15 88 30 674 220 1039 587 945 949 -75 286 -421 550 -945 721 -47 15
-86 29 -88 30 -2 2 8 59 22 127 47 227 58 354 53 578 -4 180 -7 217 -30 304
-84 315 -269 471 -557 470 -124 -1 -193 -21 -385 -113 -207 -99 -364 -207
-533 -366 l-82 -77 -87 82 c-193 180 -408 318 -650 415 -143 58 -251 74 -370
54z m324 -263 c203 -86 445 -249 587 -394 l49 -51 -63 -68 c-76 -82 -272 -327
-356 -444 l-61 -85 -139 -17 c-139 -17 -344 -53 -465 -81 -35 -8 -65 -13 -67
-11 -7 7 -42 172 -59 280 -25 158 -25 491 0 598 25 106 78 207 133 256 67 58
110 71 229 67 93 -2 107 -6 212 -50z m1916 38 c99 -34 175 -135 217 -289 31
-115 38 -354 16 -536 -16 -126 -58 -354 -67 -363 -2 -2 -51 7 -109 20 -112 25
-380 69 -493 80 l-69 7 -61 85 c-88 121 -283 365 -357 445 l-63 68 29 31 c64
68 205 184 303 250 132 88 341 189 436 211 48 11 174 6 218 -9z m-1061 -716
c73 -81 245 -294 259 -320 8 -15 -18 -16 -331 -16 -311 0 -339 2 -331 17 29
52 315 391 331 391 4 0 37 -33 72 -72z m413 -563 c11 -3 31 -23 44 -43 131
-197 273 -445 382 -664 l64 -128 -49 -97 c-161 -326 -395 -719 -439 -737 -32
-12 -721 -19 -865 -9 -140 11 -117 -4 -211 143 -90 139 -217 364 -304 538
l-82 162 77 153 c104 205 194 365 296 527 47 74 89 139 94 145 5 5 48 13 96
16 104 8 868 3 897 -6z m-1277 -57 c-48 -75 -161 -272 -221 -386 -38 -73 -71
-131 -73 -129 -12 11 -154 419 -154 441 0 13 81 34 255 65 149 27 157 28 184
30 22 1 22 0 9 -21z m1851 -24 c96 -19 177 -37 180 -40 6 -6 -107 -345 -138
-418 l-17 -40 -71 135 c-60 116 -173 312 -222 388 l-15 23 55 -7 c30 -3 133
-22 228 -41z m-2459 -251 c29 -87 79 -223 112 -303 90 -219 87 -191 38 -306
-54 -126 -139 -353 -174 -466 -14 -49 -28 -88 -30 -88 -2 0 -57 18 -122 41
-532 183 -829 453 -760 691 47 161 249 333 546 464 74 33 314 122 331 123 4 1
30 -70 59 -156z m3020 100 c263 -94 474 -217 597 -346 92 -97 127 -168 127
-257 0 -99 -34 -163 -148 -275 -138 -136 -317 -235 -615 -342 -68 -24 -125
-42 -127 -41 -1 2 -28 79 -59 172 -31 93 -86 238 -121 323 -35 84 -64 158 -64
163 0 5 29 79 64 164 36 85 91 232 122 326 53 157 59 170 78 164 12 -3 77 -26
146 -51z m-2632 -995 c38 -73 105 -194 150 -268 44 -74 76 -136 72 -138 -11
-4 -218 31 -352 60 -60 13 -98 26 -98 33 0 23 147 445 155 445 2 0 34 -60 73
-132z m2193 -130 c35 -102 61 -189 58 -193 -7 -7 -327 -70 -408 -80 -29 -4
-51 -3 -48 1 2 5 37 63 77 129 40 66 107 185 148 264 l76 145 17 -40 c9 -21
45 -123 80 -226z m-2328 -432 c133 -28 338 -60 450 -72 l67 -6 102 -137 c118
-158 193 -251 301 -375 l78 -89 -48 -49 c-125 -129 -344 -282 -518 -363 -141
-66 -206 -85 -288 -85 -149 0 -237 53 -301 180 -58 116 -71 196 -71 425 0 202
9 294 47 475 26 127 28 132 43 126 7 -2 69 -16 138 -30z m2463 -37 c45 -191
58 -312 58 -529 1 -195 -1 -223 -22 -300 -63 -229 -170 -319 -370 -308 -77 4
-101 11 -207 56 -206 89 -437 245 -580 391 l-49 51 46 48 c73 75 201 233 323
396 l113 151 173 23 c96 12 246 37 334 55 88 18 161 32 163 31 2 -1 10 -30 18
-65z m-976 -74 c0 -18 -325 -405 -339 -405 -16 0 -303 339 -332 392 -8 15 18
16 331 16 187 0 340 -1 340 -3z"/>
<path d="M2493 2980 c-130 -19 -258 -115 -314 -235 -123 -262 38 -565 320
-605 182 -26 366 72 442 235 147 313 -106 654 -448 605z m188 -245 c64 -45 91
-104 87 -186 -6 -118 -79 -191 -197 -197 -82 -4 -141 23 -186 87 -27 39 -30
50 -30 121 0 71 3 82 30 121 45 64 104 91 187 87 55 -3 75 -9 109 -33z"/>
</g>
</svg>
